.
..............................Site Info...........................

 -   http://www.scenetime.com  *_*   

Good news ! SceneTime will open sign up on Easter day for one day . Its a good chance to sign in on Easter day .

Scenetime .Always on time . friendly online private torrent community ..

     We care to share . Join us on  http://www.scenetime.com 

    Be the first to get new release at  http://www.scenetime.com

        Seed back for speed


...................................NFO:.................................................[center][img]http://lookpic.com/O/i2/524/5dUqIhkK.jpeg[/img][/center]

[img]http://lookpic.com/O/i2/298/l4OrvnSi.png[/img]
http://www.imdb.com/title/tt0160401/

[b]
In.Too.Deep.1999.BRRip.XviD.AC3-STOLEN

Format                           : AVI
Format/Info                      : Audio Video Interleave
File size                        : 1.58 GiB
Duration                         : 1h 37mn
Overall bit rate                 : 2 330 Kbps
Writing library                  : VirtualDub build 32842/release

Video
ID                               : 0
Format                           : MPEG-4 Visual
Format profile                   : Advanced Simple@L5
Format settings, BVOP            : 2
Format settings, QPel            : No
Format settings, GMC             : No warppoints
Format settings, Matrix          : Default (H.263)
Muxing mode                      : Packed bitstream
Codec ID                         : XVID
Codec ID/Hint                    : XviD
Duration                         : 1h 37mn
Bit rate                         : 1 873 Kbps
Width                            : 720 pixels
Height                           : 304 pixels
Display aspect ratio             : 2.35:1
Frame rate                       : 23.976 fps
Color space                      : YUV
Chroma subsampling               : 4:2:0
Bit depth                        : 8 bits
Scan type                        : Progressive
Compression mode                 : Lossy
Bits/(Pixel*Frame)               : 0.357
Stream size                      : 1.27 GiB (80%)
Writing library                  : XviD 64

Audio
ID                               : 1
Format                           : AC-3
Format/Info                      : Audio Coding 3
Mode extension                   : CM (complete main)
Codec ID                         : 2000
Duration                         : 1h 37mn
Bit rate mode                    : Constant
Bit rate                         : 448 Kbps
Channel(s)                       : 6 channels
Channel positions                : Front: L C R, Side: L R, LFE
Sampling rate                    : 48.0 KHz
Bit depth                        : 16 bits
Compression mode                 : Lossy
Stream size                      : 311 MiB (19%)
Alignment                        : Aligned on interleaves
Interleave, duration             : 42 ms (1.00 video frame)
Interleave, preload duration     : 512 ms

Source 720p Amiable[/b]

[IMG]http://lookpic.com/O/i2/1964/WcslQxoJ.png[/IMG]
[center][img]http://lookpic.com/O/i2/181/NwfZpHLm.png[/img][/center]
[center][img]http://lookpic.com/O/i2/593/WVBG1aDX.png[/img][/center]
[center][img]http://lookpic.com/O/i2/800/9INXrQ7T.png[/img][/center]
[center][img]http://lookpic.com/O/i2/428/SKXoovRq.png[/img][/center]
[center][img]http://lookpic.com/O/i2/1975/vsTdbQS9.png[/img][/center]

Enjoy Space ;)